<svg width="28" height="29" viewBox="0 0 28 29" fill="none" xmlns="http://www.w3.org/2000/svg">
<path d="M25.1758 14.0508C25.1758 13.5195 24.9961 13.082 24.6367 12.7383L17.4531 5.56641C17.0859 5.19141 16.6758 5.00391 16.2227 5.00391C15.6836 5.00391 15.2539 5.16797 14.9336 5.49609C14.6055 5.81641 14.4414 6.21484 14.4414 6.69141C14.4414 6.97266 14.5 7.21875 14.6172 7.42969C14.7266 7.64062 14.8594 7.82422 15.0156 7.98047L17.5 10.4648L20.957 13.6406L21.7773 12.4922L17.2422 12.2578L5.16016 12.2578C4.59766 12.2578 4.14844 12.4219 3.8125 12.75C3.46875 13.0781 3.29688 13.5117 3.29688 14.0508C3.29688 14.582 3.46875 15.0117 3.8125 15.3398C4.14844 15.668 4.59766 15.832 5.16016 15.832L17.2422 15.832L21.7773 15.5977L20.957 14.4609L17.5 17.6367L15.0156 20.1211C14.8594 20.2852 14.7266 20.4688 14.6172 20.6719C14.5 20.8828 14.4414 21.125 14.4414 21.3984C14.4414 21.8828 14.6055 22.2852 14.9336 22.6055C15.2539 22.9336 15.6836 23.0977 16.2227 23.0977C16.4336 23.0977 16.6484 23.0469 16.8672 22.9453C17.0781 22.8516 17.2773 22.7148 17.4648 22.5352L24.6367 15.3633C24.9961 15.0117 25.1758 14.5742 25.1758 14.0508Z" fill="white"/>
</svg>
