<svg width="38" height="38" viewBox="0 0 38 38" fill="none" xmlns="http://www.w3.org/2000/svg">
<path id="SF Symbol / faceid" d="M0.757951 11.8609C1.2496 11.8609 1.5159 11.5741 1.5159 11.0825V5.57197C1.5159 2.90889 2.90889 1.5159 5.57197 1.5159H11.103C11.5946 1.5159 11.8814 1.2496 11.8814 0.757951C11.8814 0.266307 11.5946 0 11.103 0H5.531C1.90512 0 0 1.88464 0 5.49003V11.0825C0 11.5741 0.266307 11.8609 0.757951 11.8609ZM37.2421 11.8609C37.7337 11.8609 38 11.5741 38 11.0825V5.49003C38 1.92561 36.1154 0 32.4895 0H26.897C26.4054 0 26.1186 0.266307 26.1186 0.757951C26.1186 1.2496 26.4054 1.5159 26.897 1.5159H32.428C35.0092 1.5159 36.4841 2.90889 36.4841 5.57197V11.0825C36.4841 11.5741 36.7504 11.8609 37.2421 11.8609ZM17.3305 21.7553H17.5148C19.1741 21.7553 20.014 20.9358 20.014 19.2561V12.9671C20.014 12.496 19.7887 12.2706 19.3175 12.2706C18.8668 12.2706 18.621 12.496 18.621 12.9671V19.4404C18.621 19.9935 18.1703 20.3418 17.7197 20.3418H17.0232C16.634 20.3418 16.3472 20.6286 16.3472 21.0178C16.3472 21.5094 16.6544 21.7553 17.3305 21.7553ZM11.6356 17.0437C12.2501 17.0437 12.6394 16.6544 12.6394 16.0399V13.3154C12.6394 12.6803 12.2501 12.2911 11.6356 12.2911C11.0415 12.2911 10.6523 12.7008 10.6523 13.3154V16.0399C10.6523 16.6544 11.0415 17.0437 11.6356 17.0437ZM26.1801 17.0437C26.7741 17.0437 27.1633 16.6544 27.1633 16.0399V13.3154C27.1633 12.7008 26.7741 12.2911 26.1801 12.2911C25.5655 12.2911 25.1558 12.6803 25.1558 13.3154V16.0399C25.1558 16.6544 25.5655 17.0437 26.1801 17.0437ZM18.8259 28.0237C21.0792 28.0237 23.3326 27.0814 24.9919 25.4221C25.1148 25.3197 25.2377 25.1353 25.2377 24.869C25.2377 24.4593 24.9305 24.193 24.5617 24.193C24.3364 24.193 24.152 24.2544 23.8857 24.5412C22.6566 25.7704 20.7515 26.6512 18.8259 26.6512C16.9003 26.6512 15.0156 25.7704 13.766 24.5412C13.5202 24.2749 13.3358 24.193 13.09 24.193C12.7213 24.193 12.414 24.4593 12.414 24.869C12.414 25.1148 12.5369 25.2992 12.6598 25.4221C14.2782 27.1019 16.5725 28.0237 18.8259 28.0237ZM5.531 38H11.103C11.5946 38 11.8814 37.7337 11.8814 37.2421C11.8814 36.7504 11.5946 36.4841 11.103 36.4841H5.57197C2.90889 36.4841 1.5159 35.0911 1.5159 32.4075V26.9175C1.5159 26.4259 1.2496 26.1186 0.757951 26.1186C0.266307 26.1186 0 26.4259 0 26.9175V32.4895C0 36.1154 1.90512 38 5.531 38ZM26.897 38H32.4895C36.1154 38 38 36.0539 38 32.4895V26.9175C38 26.4259 37.7337 26.1186 37.2421 26.1186C36.7504 26.1186 36.4841 26.4259 36.4841 26.9175V32.4075C36.4841 35.0911 35.0092 36.4841 32.428 36.4841H26.897C26.4054 36.4841 26.1186 36.7504 26.1186 37.2421C26.1186 37.7337 26.4054 38 26.897 38Z" fill="#F5F5F5"/>
</svg>
