<svg width="24" height="22" viewBox="0 0 24 22" fill="none" xmlns="http://www.w3.org/2000/svg">
<g id="Group">
<path id="Vector" fill-rule="evenodd" clip-rule="evenodd" d="M9.77778 20.7778C9.77778 20.4536 9.64901 20.1427 9.4198 19.9135C9.19059 19.6843 8.87971 19.5556 8.55556 19.5556H2.44444V2.44444H8.55556C8.87971 2.44444 9.19059 2.31567 9.4198 2.08646C9.64901 1.85725 9.77778 1.54638 9.77778 1.22222C9.77778 0.898069 9.64901 0.587192 9.4198 0.357981C9.19059 0.128769 8.87971 0 8.55556 0H2.44444C1.79614 0 1.17438 0.257539 0.715961 0.715961C0.257539 1.17438 0 1.79614 0 2.44444V19.5556C0 20.2039 0.257539 20.8256 0.715961 21.284C1.17438 21.7425 1.79614 22 2.44444 22H8.55556C8.87971 22 9.19059 21.8712 9.4198 21.642C9.64901 21.4128 9.77778 21.1019 9.77778 20.7778Z" fill="#FAFAFA"/>
<path id="Vector_2" d="M22.8727 11.8555C23.0962 11.6282 23.2217 11.3224 23.2222 11.0036V10.9962C23.2216 10.6733 23.0928 10.3638 22.8641 10.1358L17.9752 5.24691C17.8625 5.13017 17.7276 5.03706 17.5785 4.97301C17.4294 4.90895 17.269 4.87524 17.1067 4.87383C16.9444 4.87242 16.7835 4.90334 16.6333 4.96479C16.4831 5.02625 16.3466 5.117 16.2319 5.23176C16.1171 5.34652 16.0263 5.48298 15.9649 5.63319C15.9034 5.78339 15.8725 5.94434 15.8739 6.10662C15.8753 6.26891 15.909 6.42929 15.9731 6.5784C16.0372 6.72752 16.1303 6.86239 16.247 6.97513L19.0496 9.77769H7.33334C7.00918 9.77769 6.69831 9.90646 6.4691 10.1357C6.23988 10.3649 6.11111 10.6758 6.11111 10.9999C6.11111 11.3241 6.23988 11.6349 6.4691 11.8642C6.69831 12.0934 7.00918 12.2221 7.33334 12.2221H19.0496L16.247 15.0247C16.0244 15.2552 15.9012 15.5639 15.904 15.8844C15.9067 16.2049 16.0353 16.5114 16.2619 16.738C16.4885 16.9646 16.7951 17.0932 17.1155 17.096C17.436 17.0987 17.7447 16.9755 17.9752 16.7529L22.8641 11.864L22.8727 11.8555Z" fill="#FAFAFA"/>
</g>
</svg>
