<svg width="31" height="35" viewBox="0 0 31 35" fill="none" xmlns="http://www.w3.org/2000/svg">
<path d="M30.871 28.2609L30.5187 27.9501C29.5195 27.0598 28.6449 26.0389 27.9185 24.9148C27.1252 23.3636 26.6498 21.6695 26.52 19.932V14.8144C26.5269 12.0854 25.5369 9.44771 23.7362 7.39707C21.9354 5.34643 19.4478 4.02394 16.7408 3.67808V2.34172C16.7408 1.97493 16.5951 1.62316 16.3357 1.36381C16.0763 1.10445 15.7246 0.95874 15.3578 0.95874C14.991 0.95874 14.6392 1.10445 14.3799 1.36381C14.1205 1.62316 13.9748 1.97493 13.9748 2.34172V3.6988C11.292 4.06959 8.83445 5.40007 7.05736 7.44383C5.28027 9.48758 4.30404 12.1061 4.3095 14.8144V19.932C4.17976 21.6695 3.70429 23.3636 2.91099 24.9148C2.1971 26.0361 1.33656 27.0569 0.352219 27.9501L0 28.2609V31.1823H30.871V28.2609Z" fill="#FAFAFA"/>
<path d="M12.7109 32.27C12.8017 32.9267 13.1271 33.5283 13.627 33.9637C14.1268 34.3992 14.7673 34.6391 15.4302 34.6391C16.0932 34.6391 16.7337 34.3992 17.2335 33.9637C17.7334 33.5283 18.0587 32.9267 18.1496 32.27H12.7109Z" fill="#FAFAFA"/>
</svg>
