<svg width="20" height="22" viewBox="0 0 20 22" fill="none" xmlns="http://www.w3.org/2000/svg">
<path id="Vector" d="M10 12.1C12.6622 12.1 15.0833 12.8634 16.8644 13.9381C17.7533 14.4771 18.5133 15.1096 19.0622 15.7971C19.6022 16.4747 20 17.2843 20 18.15C20 19.0795 19.5433 19.8121 18.8856 20.3346C18.2633 20.8296 17.4422 21.1574 16.57 21.3862C14.8167 21.8449 12.4767 22 10 22C7.52333 22 5.18333 21.846 3.43 21.3862C2.55778 21.1574 1.73667 20.8296 1.11444 20.3346C0.455555 19.811 0 19.0795 0 18.15C0 17.2843 0.397778 16.4747 0.937778 15.7971C1.48667 15.1096 2.24556 14.4771 3.13556 13.9381C4.91667 12.8634 7.33889 12.1 10 12.1ZM10 0C11.4734 0 12.8865 0.579463 13.9284 1.61091C14.9702 2.64236 15.5556 4.04131 15.5556 5.5C15.5556 6.95869 14.9702 8.35764 13.9284 9.38909C12.8865 10.4205 11.4734 11 10 11C8.52658 11 7.1135 10.4205 6.07163 9.38909C5.02976 8.35764 4.44444 6.95869 4.44444 5.5C4.44444 4.04131 5.02976 2.64236 6.07163 1.61091C7.1135 0.579463 8.52658 0 10 0Z" fill="white"/>
</svg>
